<svg xmlns="http://www.w3.org/2000/svg" width="24" height="24" viewBox="0 0 24 24">
  <path d="M12 0C5.373 0 0 5.373 0 12c0 5.302 3.438 9.8 8.205 11.385.6.11.82-.26.82-.58 0-.29-.01-1.05-.01-2.06-3.002.65-3.64-1.45-3.64-1.45-.49-1.24-1.2-1.57-1.2-1.57-.98-.67.07-.65.07-.65 1.08.08 1.65 1.11 1.65 1.11.96 1.64 2.52 1.17 3.13.89.1-.69.38-1.17.69-1.44-2.42-.27-4.96-1.21-4.96-5.39 0-1.19.42-2.17 1.11-2.94-.11-.27-.48-1.39.11-2.89 0 0 .92-.29 3.02 1.12.87-.24 1.81-.36 2.74-.36.93 0 1.87.12 2.74.36 2.1-1.41 3.02-1.12 3.02-1.12.59 1.5.22 2.62.11 2.89.69.77 1.11 1.75 1.11 2.94 0 4.19-2.55 5.12-4.98 5.39.39.34.74 1.01.74 2.04 0 1.47-.01 2.66-.01 3.02 0 .32.22.69.83.57C20.565 21.795 24 17.297 24 12c0-6.627-5.373-12-12-12z" fill="#fff"/>
</svg>
